<svg width="362" height="672" viewBox="0 0 362 672" fill="none" xmlns="http://www.w3.org/2000/svg">
<rect x="1" y="4" width="150" height="92" rx="20" fill="#FFDB15"/>
<path d="M160 24C160 12.9543 168.954 4 180 4H229C240.046 4 249 12.9543 249 24V76C249 87.0457 240.046 96 229 96H180C168.954 96 160 87.0457 160 76V24Z" fill="white"/>
<path d="M273 382C273 370.954 281.954 362 293 362H342C353.046 362 362 370.954 362 382V434C362 445.046 353.046 454 342 454H293C281.954 454 273 445.046 273 434V382Z" fill="white"/>
<path d="M273 491C273 479.954 281.954 471 293 471H342C353.046 471 362 479.954 362 491V543C362 554.046 353.046 563 342 563H293C281.954 563 273 554.046 273 543V491Z" fill="#FFDB15"/>
<path d="M273 600C273 588.954 281.954 580 293 580H342C353.046 580 362 588.954 362 600V652C362 663.046 353.046 672 342 672H293C281.954 672 273 663.046 273 652V600Z" fill="#FFDB15"/>
<path d="M167 600C167 588.954 175.954 580 187 580H236C247.046 580 256 588.954 256 600V652C256 663.046 247.046 672 236 672H187C175.954 672 167 663.046 167 652V600Z" fill="white"/>
<path d="M263 20C263 8.9543 271.954 0 283 0H328C339.046 0 348 8.95431 348 20V325C348 336.046 339.046 345 328 345H283C271.954 345 263 336.046 263 325V20Z" fill="#FFDB15"/>
<rect x="1" y="114" width="234" height="231" rx="20" fill="white"/>
<g opacity="0.3">
<rect y="361" width="106" height="208" rx="20" fill="#FFDB15"/>
<rect x="132" y="361" width="106" height="208" rx="20" fill="#FFDB15"/>
</g>
</svg>
